<?xml version="1.0" standalone="no"?>
<!DOCTYPE svg PUBLIC "-//W3C//DTD SVG 1.1//EN" "http://www.w3.org/Graphics/SVG/1.1/DTD/svg11.dtd" >
<svg>
<metadata>
Created by FontForge 20110222 at Mon Mar  7 04:40:26 2011
 By www-data
Copyright (C) - 05 Jun 2006 - Tipografi'as gratis desde Lanu's, Bs. As., Argentina - matrerog@yahoo.com.ar
</metadata>
<defs>
<font id="ChingoloPro" horiz-adv-x="408" >
  <font-face 
    font-family="Chingolo Pro"
    font-weight="400"
    font-stretch="normal"
    units-per-em="1000"
    panose-1="2 11 6 3 5 3 2 2 2 4"
    ascent="800"
    descent="-200"
    x-height="953.5"
    cap-height="954"
    bbox="57 27 558 965"
    underline-thickness="0"
    underline-position="0"
    unicode-range="U+0020-20AC"
  />
    <missing-glyph />
    <glyph glyph-name="space" unicode=" " horiz-adv-x="500" 
 />
    <glyph glyph-name="Agrave" unicode="&#xc0;" horiz-adv-x="1000" 
 />
    <glyph glyph-name="Acircumflex" unicode="&#xc2;" horiz-adv-x="1000" 
 />
    <glyph glyph-name="Atilde" unicode="&#xc3;" horiz-adv-x="1000" 
 />
    <glyph glyph-name="Adieresis" unicode="&#xc4;" horiz-adv-x="1000" 
 />
    <glyph glyph-name="Aring" unicode="&#xc5;" horiz-adv-x="1000" 
 />
    <glyph glyph-name="AE" unicode="&#xc6;" horiz-adv-x="1000" 
 />
    <glyph glyph-name="Ccedilla" unicode="&#xc7;" horiz-adv-x="1000" 
 />
    <glyph glyph-name="Egrave" unicode="&#xc8;" horiz-adv-x="1000" 
 />
    <glyph glyph-name="A" unicode="A" 
d="M207 885q-25 -4 -29 -22t-4 -38q0 -75 0.5 -152.5t0.5 -155.5h31.5h32.5v155.5t1 152.5q0 20 -4 38.5t-29 21.5zM239 435h-32h-32v-155.5v-151.5h-41.5h-40.5v330.5v331.5q0 57 10 98t63 70q14 7 39 7t43 -7q52 -29 62.5 -70t10.5 -98q-1 -164 -0.5 -331.5t0.5 -330.5
h-41.5h-40.5v151.5v155.5z" />
    <glyph glyph-name="a" unicode="a" 
d="M207 885q-25 -4 -29 -22t-4 -38q0 -75 0.5 -152.5t0.5 -155.5h31.5h32.5v155.5t1 152.5q0 20 -4 38.5t-29 21.5zM239 435h-32h-32v-155.5v-151.5h-41.5h-40.5v330.5v331.5q0 57 10 98t63 70q14 7 39 7t43 -7q52 -29 62.5 -70t10.5 -98q-1 -164 -0.5 -331.5t0.5 -330.5
h-41.5h-40.5v151.5v155.5z" />
    <glyph glyph-name="B" unicode="B" 
d="M93 954h1q33 0 78 1.5t75 -7.5q51 -15 62.5 -66.5t11.5 -101.5v-15.5v-20.5v0v0v-32v-21q0 -36 -5 -73t-23 -63q18 -27 23 -64.5t5 -71.5v-59.5v-58.5q0 -50 -11.5 -101.5t-62.5 -66.5q-30 -9 -73.5 -7.5t-76.5 2.5h-4v412.5v413.5zM194 517q-6 -1 -17 -1v-156.5v-156.5
h14q36 0 42 22t6 46v88.5v89.5q0 22 -5.5 44t-39.5 24zM177 878v-143v-142h14q36 0 42 22t6 46v74.5v74.5q0 24 -6 46t-42 22h-14z" />
    <glyph glyph-name="b" unicode="b" 
d="M93 954h1q33 0 78 1.5t75 -7.5q51 -15 62.5 -66.5t11.5 -101.5v-15.5v-20.5v0v0v-32v-21q0 -36 -5 -73t-23 -63q18 -27 23 -64.5t5 -71.5v-59.5v-58.5q0 -50 -11.5 -101.5t-62.5 -66.5q-30 -9 -73.5 -7.5t-76.5 2.5h-4v412.5v413.5zM194 517q-6 -1 -17 -1v-156.5v-156.5
h14q36 0 42 22t6 46v88.5v89.5q0 22 -5.5 44t-39.5 24zM177 878v-143v-142h14q36 0 42 22t6 46v74.5v74.5q0 24 -6 46t-42 22h-14z" />
    <glyph glyph-name="C" unicode="C" horiz-adv-x="407" 
d="M207 884q-25 -3 -29 -21t-4 -38q1 -282 0 -563q0 -21 4 -38.5t29 -20.5q25 1 29 19.5t4 39.5q-1 33 -1 34.5t0 -3t0 -2.5v37h82q0 -60 0 -41.5t0 6.5q0 -57 -10.5 -98.5t-62.5 -69.5q-13 -7 -43 -7q-25 0 -39 7q-53 28 -63 69.5t-10 98.5v248v249q0 57 10 98t63 70
q14 7 39 7q27 0 43 -7q52 -28 62.5 -69t10.5 -98h-82l1 34q0 20 -4 38.5t-29 20.5z" />
    <glyph glyph-name="c" unicode="c" horiz-adv-x="407" 
d="M207 884q-25 -3 -29 -21t-4 -38q1 -282 0 -563q0 -21 4 -38.5t29 -20.5q25 1 29 19.5t4 39.5q-1 33 -1 34.5t0 -3t0 -2.5v37h82q0 -60 0 -41.5t0 6.5q0 -57 -10.5 -98.5t-62.5 -69.5q-13 -7 -43 -7q-25 0 -39 7q-53 28 -63 69.5t-10 98.5v248v249q0 57 10 98t63 70
q14 7 39 7q27 0 43 -7q52 -28 62.5 -69t10.5 -98h-82l1 34q0 20 -4 38.5t-29 20.5z" />
    <glyph glyph-name="D" unicode="D" 
d="M93 954h1q33 0 78 1.5t75 -7.5q51 -15 62.5 -66.5t11.5 -101.5q-2 -239 0 -479q0 -50 -11.5 -101.5t-62.5 -66.5q-30 -9 -73 -7.5t-76 2.5h-5v412.5v413.5zM239 810q0 23 -6 45.5t-42 22.5h-14v-338v-337h14q36 0 42 22t6 46v269.5v269.5z" />
    <glyph glyph-name="d" unicode="d" 
d="M93 954h1q33 0 78 1.5t75 -7.5q51 -15 62.5 -66.5t11.5 -101.5q-2 -239 0 -479q0 -50 -11.5 -101.5t-62.5 -66.5q-30 -9 -73 -7.5t-76 2.5h-5v412.5v413.5zM239 810q0 23 -6 45.5t-42 22.5h-14v-338v-337h14q36 0 42 22t6 46v269.5v269.5z" />
    <glyph glyph-name="E" unicode="E" horiz-adv-x="407" 
d="M320 128q-32 0 -76.5 -2.5t-77.5 5.5q-45 15 -59 61.5t-14 106.5v240.5v240.5q0 50 11 101.5t62 66.5q30 9 75.5 7.5t78.5 -1.5v-38v-38h-97q-37 0 -43 -22.5t-6 -45.5q0 -54 0.5 -108t0.5 -108h66v-78q-22 -1 -33.5 -0.5t-32.5 0.5v-11v0l-1 -231q0 -24 6 -42.5
t43 -18.5h97v-43.5v-41.5z" />
    <glyph glyph-name="e" unicode="e" horiz-adv-x="407" 
d="M320 128q-32 0 -76.5 -2.5t-77.5 5.5q-45 15 -59 61.5t-14 106.5v240.5v240.5q0 50 11 101.5t62 66.5q30 9 75.5 7.5t78.5 -1.5v-38v-38h-97q-37 0 -43 -22.5t-6 -45.5q0 -54 0.5 -108t0.5 -108h66v-78q-22 -1 -33.5 -0.5t-32.5 0.5v-11v0l-1 -231q0 -24 6 -42.5
t43 -18.5h97v-43.5v-41.5z" />
    <glyph glyph-name="F" unicode="F" horiz-adv-x="407" 
d="M94 128q-1 113 -1 226v227v0v96.5v100.5q0 49 10 103.5t63 66.5q30 9 75.5 7.5t78.5 -1.5v-38v-38h-97q-37 0 -43 -22.5t-6 -45.5q0 -54 0.5 -108t0.5 -108h66v-78q-22 -1 -33.5 -1h-32.5v-10v0q-2 -190 0 -377h-81z" />
    <glyph glyph-name="f" unicode="f" horiz-adv-x="407" 
d="M94 128q-1 113 -1 226v227v0v96.5v100.5q0 49 10 103.5t63 66.5q30 9 75.5 7.5t78.5 -1.5v-38v-38h-97q-37 0 -43 -22.5t-6 -45.5q0 -54 0.5 -108t0.5 -108h66v-78q-22 -1 -33.5 -1h-32.5v-10v0q-2 -190 0 -377h-81z" />
    <glyph glyph-name="G" unicode="G" 
d="M207 885q-25 -4 -29 -22t-4 -38q0 -139 0.5 -277.5t0.5 -276.5q0 -24 5.5 -46t43.5 -22h12v64.5v92v92v65.5h84v-65.5v-92v-92v-64.5v-1v-37.5v-36.5q-33 0 -78.5 -2t-75.5 7q-51 15 -62 66.5t-11 101.5v244v245q0 57 10 98t63 70q14 7 39 7q26 0 42 -7q52 -28 63 -69
t11 -97h-82l1 33q0 20 -4 38.5t-29 21.5z" />
    <glyph glyph-name="g" unicode="g" 
d="M207 885q-25 -4 -29 -22t-4 -38q0 -139 0.5 -277.5t0.5 -276.5q0 -24 5.5 -46t43.5 -22h12v64.5v92v92v65.5h84v-65.5v-92v-92v-64.5v-1v-37.5v-36.5q-33 0 -78.5 -2t-75.5 7q-51 15 -62 66.5t-11 101.5v244v245q0 57 10 98t63 70q14 7 39 7q26 0 42 -7q52 -28 63 -69
t11 -97h-82l1 33q0 20 -4 38.5t-29 21.5z" />
    <glyph glyph-name="H" unicode="H" 
d="M92 128v826h84v-360h67v360h83v-827h-83v390h-67v-389h-43h-41z" />
    <glyph glyph-name="h" unicode="h" 
d="M92 128v826h84v-360h67v360h83v-827h-83v390h-67v-389h-43h-41z" />
    <glyph glyph-name="J" unicode="J" 
d="M321 954q-1 -53 -1 -143v-188t0.5 -188t0.5 -142q0 -57 -10.5 -98.5t-63.5 -69.5q-13 -7 -38 -7q-28 0 -43 7q-53 28 -63.5 69.5t-9.5 98.5v88v135h81v-254q0 -21 3.5 -39.5t29.5 -19.5q24 3 28 20.5t4 38.5v149.5v196v196v150.5h82z" />
    <glyph glyph-name="j" unicode="j" 
d="M321 954q-1 -53 -1 -143v-188t0.5 -188t0.5 -142q0 -57 -10.5 -98.5t-63.5 -69.5q-13 -7 -38 -7q-28 0 -43 7q-53 28 -63.5 69.5t-9.5 98.5v88v135h81v-254q0 -21 3.5 -39.5t29.5 -19.5q24 3 28 20.5t4 38.5v149.5v196v196v150.5h82z" />
    <glyph glyph-name="K" unicode="K" 
d="M93 954h40.5h41.5v-180v-180h16q36 0 42 22t6 46v291h82v-130v-131t-5 -73.5t-23 -63.5q18 -27 23 -64t5 -72v-60v-87v-86.5v-57.5h-81l-1 321q0 23 -6 45t-42 23h-16v-195.5v-193.5h-82v232v233v1v360z" />
    <glyph glyph-name="k" unicode="k" 
d="M93 954h40.5h41.5v-180v-180h16q36 0 42 22t6 46v291h82v-130v-131t-5 -73.5t-23 -63.5q18 -27 23 -64t5 -72v-60v-87v-86.5v-57.5h-81l-1 321q0 23 -6 45t-42 23h-16v-195.5v-193.5h-82v232v233v1v360z" />
    <glyph glyph-name="N" unicode="N" 
d="M207 885q-25 -4 -29 -22t-4 -38q0 -169 0.5 -349t0.5 -348h-41.5h-40.5v330.5v331.5q0 57 10 98t63 70q14 7 39 7t43 -7q52 -29 62.5 -70t10.5 -98q-1 -164 -0.5 -331.5t0.5 -330.5h-41.5h-40.5v348t1 349q0 20 -4 38.5t-29 21.5z" />
    <glyph glyph-name="n" unicode="n" 
d="M207 885q-25 -4 -29 -22t-4 -38q0 -169 0.5 -349t0.5 -348h-41.5h-40.5v330.5v331.5q0 57 10 98t63 70q14 7 39 7t43 -7q52 -29 62.5 -70t10.5 -98q-1 -164 -0.5 -331.5t0.5 -330.5h-41.5h-40.5v348t1 349q0 20 -4 38.5t-29 21.5z" />
    <glyph glyph-name="Ntilde" unicode="&#xd1;" 
d="M207 712q-25 -4 -28.5 -22t-3.5 -38v-145.5v-117v-117v-144.5h-41h-40q0 81 -0.5 137t-0.5 107v107v138q0 57 10 98t64 70q12 7 38 7q30 0 43 -7q52 -29 62.5 -70t10.5 -98v-138v-107v-107v-137h-41.5h-40.5v144.5v117v117t1 145.5q0 20 -4 38.5t-29 21.5zM321 954v-75
h-114h-114v36.5v38.5h113h115z" />
    <glyph glyph-name="ntilde" unicode="&#xf1;" 
d="M207 712q-25 -4 -28.5 -22t-3.5 -38v-145.5v-117v-117v-144.5h-41h-40q0 81 -0.5 137t-0.5 107v107v138q0 57 10 98t64 70q12 7 38 7q30 0 43 -7q52 -29 62.5 -70t10.5 -98v-138v-107v-107v-137h-41.5h-40.5v144.5v117v117t1 145.5q0 20 -4 38.5t-29 21.5zM321 954v-75
h-114h-114v36.5v38.5h113h115z" />
    <glyph glyph-name="O" unicode="O" 
d="M207 884q-25 -3 -28.5 -21t-3.5 -38v-564q0 -21 3.5 -38.5t28.5 -20.5q25 1 29 19.5t4 39.5v564q0 20 -4 38.5t-29 20.5zM322 790v-497q0 -57 -11 -98.5t-63 -69.5q-16 -7 -43 -7q-26 0 -38 7q-54 28 -64 69.5t-10 98.5v497q0 57 10 98t64 70q12 7 38 7q27 0 43 -7
q52 -29 63 -70t11 -98z" />
    <glyph glyph-name="o" unicode="o" 
d="M207 884q-25 -3 -28.5 -21t-3.5 -38v-564q0 -21 3.5 -38.5t28.5 -20.5q25 1 29 19.5t4 39.5v564q0 20 -4 38.5t-29 20.5zM322 790v-497q0 -57 -11 -98.5t-63 -69.5q-16 -7 -43 -7q-26 0 -38 7q-54 28 -64 69.5t-10 98.5v497q0 57 10 98t64 70q12 7 38 7q27 0 43 -7
q52 -29 63 -70t11 -98z" />
    <glyph glyph-name="P" unicode="P" horiz-adv-x="407" 
d="M93 953h1q33 0 77.5 1t75.5 -7q51 -15 62 -66.5t11 -101.5v-15v-21v0v0v-32v-21q0 -50 -11 -101.5t-62 -65.5q-23 -7 -70 -7v-195v-193h-84v412v413zM177 877v-142v-142h13q37 0 43 21.5t6 45.5v74.5v75.5q0 22 -6 44.5t-43 22.5h-13z" />
    <glyph glyph-name="p" unicode="p" horiz-adv-x="407" 
d="M93 953h1q33 0 77.5 1t75.5 -7q51 -15 62 -66.5t11 -101.5v-15v-21v0v0v-32v-21q0 -50 -11 -101.5t-62 -65.5q-23 -7 -70 -7v-195v-193h-84v412v413zM177 877v-142v-142h13q37 0 43 21.5t6 45.5v74.5v75.5q0 22 -6 44.5t-43 22.5h-13z" />
    <glyph glyph-name="Q" unicode="Q" 
d="M207 885q-25 -4 -28.5 -22t-3.5 -38v-479q0 -21 3.5 -38.5t28.5 -20.5q25 1 29 19.5t4 39.5v479q0 20 -4 38.5t-29 21.5zM249 211v-42v-41h-84v83q-52 28 -62 69t-10 98v412q0 57 10 98t64 70q12 7 38 7q27 0 43 -7q52 -29 62.5 -70t10.5 -98v-412q0 -57 -10.5 -98
t-61.5 -69z" />
    <glyph glyph-name="q" unicode="q" 
d="M207 885q-25 -4 -28.5 -22t-3.5 -38v-479q0 -21 3.5 -38.5t28.5 -20.5q25 1 29 19.5t4 39.5v479q0 20 -4 38.5t-29 21.5zM249 211v-42v-41h-84v83q-52 28 -62 69t-10 98v412q0 57 10 98t64 70q12 7 38 7q27 0 43 -7q52 -29 62.5 -70t10.5 -98v-412q0 -57 -10.5 -98
t-61.5 -69z" />
    <glyph glyph-name="R" unicode="R" 
d="M93 954h1q33 0 78 1.5t75 -7.5q51 -15 62.5 -66.5t11.5 -101.5v-15.5v-20.5v0v0v-32v-21q0 -36 -5 -73t-23 -63q18 -27 23 -64.5t5 -72.5v-51.5v-94.5v-94.5v-49.5h-82v320q0 23 -6 45.5t-42 22.5h-14v-195v-193h-84v412.5v413.5zM177 878v-143v-142h14q36 0 42 22t6 46
v74.5v74.5q0 23 -6 45.5t-42 22.5h-14z" />
    <glyph glyph-name="r" unicode="r" 
d="M93 954h1q33 0 78 1.5t75 -7.5q51 -15 62.5 -66.5t11.5 -101.5v-15.5v-20.5v0v0v-32v-21q0 -36 -5 -73t-23 -63q18 -27 23 -64.5t5 -72.5v-51.5v-94.5v-94.5v-49.5h-82v320q0 23 -6 45.5t-42 22.5h-14v-195v-193h-84v412.5v413.5zM177 878v-143v-142h14q36 0 42 22t6 46
v74.5v74.5q0 23 -6 45.5t-42 22.5h-14z" />
    <glyph glyph-name="S" unicode="S" horiz-adv-x="407" 
d="M321 293q0 -57 -10.5 -98.5t-63.5 -69.5q-13 -7 -38 -7q-28 0 -43 7q-53 28 -63.5 69.5t-9.5 98.5q0 12 0 -6.5t0 41.5h82q0 -35 -0.5 -37t-0.5 2.5t0 3v-34.5q0 -21 3.5 -39.5t29.5 -19.5q24 3 28 20.5t4 38.5v126.5v127.5h-146v137v137q-1 57 9.5 98t63.5 70q14 7 39 7
q26 0 42 -7q52 -28 63 -69t11 -98h-82v34q0 20 -3.5 38.5t-28.5 20.5q-25 -3 -29 -21t-4 -38v-117v-115h146q0 -75 0.5 -150t0.5 -150z" />
    <glyph glyph-name="s" unicode="s" horiz-adv-x="407" 
d="M321 293q0 -57 -10.5 -98.5t-63.5 -69.5q-13 -7 -38 -7q-28 0 -43 7q-53 28 -63.5 69.5t-9.5 98.5q0 12 0 -6.5t0 41.5h82q0 -35 -0.5 -37t-0.5 2.5t0 3v-34.5q0 -21 3.5 -39.5t29.5 -19.5q24 3 28 20.5t4 38.5v126.5v127.5h-146v137v137q-1 57 9.5 98t63.5 70q14 7 39 7
q26 0 42 -7q52 -28 63 -69t11 -98h-82v34q0 20 -3.5 38.5t-28.5 20.5q-25 -3 -29 -21t-4 -38v-117v-115h146q0 -75 0.5 -150t0.5 -150z" />
    <glyph glyph-name="u" unicode="u" 
d="M207 202q25 2 29 20.5t4 39.5q-1 168 -1 345v347h40.5h41.5v-331v-330q0 -57 -10.5 -98.5t-62.5 -69.5q-16 -7 -43 -7q-25 0 -39 7q-53 28 -63 69.5t-10 98.5v330v331h40.5h41.5q0 -170 -0.5 -347t-0.5 -345q0 -21 4 -39t29 -21z" />
    <glyph glyph-name="U" unicode="U" 
d="M207 202q25 2 29 20.5t4 39.5q-1 168 -1 345v347h40.5h41.5v-331v-330q0 -57 -10.5 -98.5t-62.5 -69.5q-16 -7 -43 -7q-25 0 -39 7q-53 28 -63 69.5t-10 98.5v330v331h40.5h41.5q0 -170 -0.5 -347t-0.5 -345q0 -21 4 -39t29 -21z" />
    <glyph glyph-name="V" unicode="V" 
d="M325 954q0 -114 0.5 -226t0.5 -225v0v-98v-100q0 -50 -10.5 -104.5t-62.5 -65.5q-19 -5 -47.5 -6l-28.5 -1h-84v412.5v413.5h42h42v-736h19q36 0 42.5 21.5t6.5 45.5l-1 669h81z" />
    <glyph glyph-name="v" unicode="v" 
d="M325 954q0 -114 0.5 -226t0.5 -225v0v-98v-100q0 -50 -10.5 -104.5t-62.5 -65.5q-19 -5 -47.5 -6l-28.5 -1h-84v412.5v413.5h42h42v-736h19q36 0 42.5 21.5t6.5 45.5l-1 669h81z" />
    <glyph glyph-name="X" unicode="X" 
d="M207 517q-25 -3 -29 -21t-3 -38v-115.5v-50v-50v-114.5h-41.5h-40.5v106v39v39v108q0 42 4.5 75.5t27.5 60.5q-23 25 -27.5 59t-4.5 77v101.5v28.5v28.5v103.5h40.5h41.5v-111v-40.5v-40v-109.5q-1 -21 3 -39t29 -21q25 2 29 20.5t4 39.5q-1 84 -1 109.5v40v40.5v111
h40.5h41.5v-103.5v-28.5v-28.5v-101.5q0 -43 -4.5 -77t-27.5 -59q23 -27 27.5 -60.5t4.5 -75.5v-108v-39v-39v-106h-41.5h-40.5v114.5v50v50t1 115.5q0 20 -4 38.5t-29 20.5z" />
    <glyph glyph-name="x" unicode="x" 
d="M207 517q-25 -3 -29 -21t-3 -38v-115.5v-50v-50v-114.5h-41.5h-40.5v106v39v39v108q0 42 4.5 75.5t27.5 60.5q-23 25 -27.5 59t-4.5 77v101.5v28.5v28.5v103.5h40.5h41.5v-111v-40.5v-40v-109.5q-1 -21 3 -39t29 -21q25 2 29 20.5t4 39.5q-1 84 -1 109.5v40v40.5v111
h40.5h41.5v-103.5v-28.5v-28.5v-101.5q0 -43 -4.5 -77t-27.5 -59q23 -27 27.5 -60.5t4.5 -75.5v-108v-39v-39v-106h-41.5h-40.5v114.5v50v50t1 115.5q0 20 -4 38.5t-29 20.5z" />
    <glyph glyph-name="Y" unicode="Y" horiz-adv-x="407" 
d="M240 954h81v-362q0 -57 -10.5 -98t-61.5 -69v-54.5v-94.5v-94.5v-53.5h-84v297q-51 28 -61.5 69t-10.5 98v362h82v-386q0 -20 3.5 -38t28.5 -21q25 1 29 20t4 39v386z" />
    <glyph glyph-name="y" unicode="y" horiz-adv-x="407" 
d="M240 954h81v-362q0 -57 -10.5 -98t-61.5 -69v-54.5v-94.5v-94.5v-53.5h-84v297q-51 28 -61.5 69t-10.5 98v362h82v-386q0 -20 3.5 -38t28.5 -21q25 1 29 20t4 39v386z" />
    <glyph glyph-name="Z" unicode="Z" horiz-adv-x="407" 
d="M93 286v308h137v42.5v74.5v71v32q0 6 -1 9q-3 21 -9 36q-12 17 -39 17h-87v38.5v38.5q33 0 73 0.5t71 -7.5q63 -38 68 -132q-1 0 -1 -32v-72v-75v-41v0v-77h-136v-158.5v-83.5q0 -23 7.5 -42.5t43.5 -19.5h84v-43v-42q-33 0 -72 -0.5t-69 8.5q-33 15 -51.5 44t-18.5 106z
" />
    <glyph glyph-name="z" unicode="z" horiz-adv-x="407" 
d="M93 286v308h137v42.5v74.5v71v32q0 6 -1 9q-3 21 -9 36q-12 17 -39 17h-87v38.5v38.5q33 0 73 0.5t71 -7.5q63 -38 68 -132q-1 0 -1 -32v-72v-75v-41v0v-77h-136v-158.5v-83.5q0 -23 7.5 -42.5t43.5 -19.5h84v-43v-42q-33 0 -72 -0.5t-69 8.5q-33 15 -51.5 44t-18.5 106z
" />
    <glyph glyph-name="zero" unicode="0" 
d="M207 884q-25 -3 -28.5 -21t-3.5 -38v-309h32h33v309q0 20 -4 38.5t-29 20.5zM240 434h-33h-32v-173q0 -21 3.5 -38.5t28.5 -20.5q25 1 29 19.5t4 39.5v173zM322 790v-497q0 -57 -11 -98.5t-63 -69.5q-16 -7 -43 -7q-26 0 -38 7q-54 28 -64 69.5t-10 98.5v497q0 57 10 98
t64 70q12 7 38 7q27 0 43 -7q52 -29 63 -70t11 -98z" />
    <glyph glyph-name="two" unicode="2" 
d="M209 884q-26 -2 -29.5 -21t-3.5 -39v-35h-83q0 57 10.5 98.5t64.5 70.5q15 7 43 7q25 0 39 -7q53 -29 63.5 -71t10.5 -99q0 -70 -0.5 -139t-0.5 -138h-147v-153.5v-153.5h132v-86h-108h-107v27.5v27.5v0v0v208v209h149q0 57 -0.5 116t0.5 118q0 20 -4.5 38.5t-28.5 21.5z
" />
    <glyph glyph-name="three" unicode="3" 
d="M93 128q-1 30 -1 42v43h97q37 0 43 18.5t6 42.5v231v0v11q-21 0 -33 -0.5t-33 0.5v78h66v108v108q0 23 -6 45.5t-43 22.5h-97v38t1 38q33 0 78 1.5t75 -7.5q51 -25 63.5 -63t10.5 -105q-2 -240 0 -481q-1 -81 -17 -115.5t-57 -52.5q-30 -9 -76 -6t-77 3z" />
    <glyph glyph-name="four" unicode="4" 
d="M240 952h39h41v-412v-412h-80v298q-50 -4 -74 10q-47 24 -60 67t-13 100v75v102t0.5 101t0.5 73h81l-1 -377q0 -23 6 -41.5t43 -18.5h17v435z" />
    <glyph glyph-name="five" unicode="5" 
d="M208 203q24 3 28 20.5t4 38.5v127v127h-147v191v192v0v0v27v28h106h107v-76h-131v-142.5v-142.5h146q0 -69 0.5 -150t0.5 -150q0 -57 -10.5 -98.5t-63.5 -69.5q-13 -7 -38 -7q-31 0 -43 7q-53 27 -63.5 86.5t-10.5 116.5h82v-66q0 -21 3.5 -39.5t29.5 -19.5z" />
    <glyph glyph-name="six" unicode="6" 
d="M207 885q-25 -3 -28.5 -21.5t-3.5 -38.5v-94v-127q13 4 30 4q27 0 43 -7q52 -29 62.5 -70t10.5 -98v-140q0 -57 -10.5 -98.5t-62.5 -69.5q-13 -7 -43 -7q-26 0 -38 7q-54 28 -64 69.5t-10 98.5v248v249q0 57 10 98t64 70q12 7 38 7q27 0 43 -7q52 -29 62.5 -69.5
t10.5 -97.5h-82l1 34q0 20 -4 39t-29 21zM207 527q-25 -3 -28.5 -22t-3.5 -38v-206q0 -21 3.5 -38.5t28.5 -20.5q25 1 29 19.5t4 39.5v206q0 20 -4 38.5t-29 21.5z" />
    <glyph glyph-name="seven" unicode="7" 
d="M318 128h-81v193v194h-33t-33 1v78h66v108v108q0 23 -6 45.5t-43 22.5h-97v38v38q33 0 78 1.5t76 -7.5q55 -26 64.5 -65.5t9.5 -102.5q-1 -52 -1 -101.5v-97.5v0v-227v-226z" />
    <glyph glyph-name="eight" unicode="8" 
d="M207 884q-25 -3 -28.5 -21t-3.5 -38v-173q0 -21 3.5 -38.5t28.5 -20.5q25 1 29 19.5t4 39.5v173q0 20 -4 38.5t-29 20.5zM207 519q-25 -4 -28.5 -22t-3.5 -38v-198q0 -21 3.5 -38.5t28.5 -20.5q25 1 29 19.5t4 39.5v198q0 20 -4 38.5t-29 21.5zM322 424v-131
q0 -57 -11 -98.5t-63 -69.5q-16 -7 -43 -7q-26 0 -38 7q-54 28 -64 69.5t-10 98.5v131q0 40 4 73t24 59q-20 25 -24 57.5t-4 73.5v103q0 57 10 98t64 70q12 7 38 7q27 0 43 -7q52 -29 63 -70t11 -98v-103q0 -41 -4.5 -73.5t-23.5 -57.5q19 -26 23.5 -59t4.5 -73z" />
    <glyph glyph-name="nine" unicode="9" 
d="M94 128q-1 30 -1 42v44h98q37 0 43 18.5t6 42.5v157v83q-10 -3 -30 -3q-31 0 -43 7q-54 27 -64 69t-10 99v102q0 57 10 98.5t64 70.5q15 7 43 7q25 0 38 -7q53 -29 63.5 -70.5t10.5 -98.5v-244.5v-244.5q0 -75 -11.5 -110t-62.5 -59q-18 -6 -71 -5t-83 2zM240 652v169
q0 20 -4 38.5t-28 21.5q-26 -2 -29.5 -21t-3.5 -39v-169q0 -20 3.5 -40t29.5 -19q21 0 26.5 15.5t5.5 43.5z" />
    <glyph glyph-name="dollar" unicode="$" 
d="M321 379q0 -57 -10.5 -98t-61.5 -69v-42v-42h-84v84q-52 28 -62 69t-10 98q0 12 0 -6.5t1 41.5h81v-37t0 2.5t0 3v-34.5q-1 -21 3 -39.5t29 -19.5q24 3 28.5 20.5t4.5 38.5q-1 63 -0.5 84t0.5 85h-146q0 68 -0.5 96.5t-0.5 97.5q0 56 10 97t62 70v76h42h42v-38.5v-37.5
q51 -29 61.5 -69.5t10.5 -96.5h-82l1 34q0 19 -4 38t-29 21q-25 -3 -28.5 -21.5t-3.5 -37.5q0 -59 -0.5 -77t-0.5 -75h147v-108v-107z" />
    <glyph glyph-name="Aacute" unicode="&#xc1;" 
d="M207 718q-25 -3 -29 -21t-4 -38v-50v-19.5t0.5 -20.5t0.5 -52h31.5h32.5v52v20.5v19.5t1 50q0 20 -4 38.5t-29 20.5zM281 954v-38.5v-37.5h-153q16 49 56 70q15 6 41 5.5t56 0.5zM239 435h-32h-32v-155.5v-151.5h-41.5h-40.5v138v109v109v140q0 57 10 98t63 70q14 6 39 6
q29 0 43 -6q52 -29 62.5 -70t10.5 -98v-140v-109v-109v-138h-41.5h-40.5v151.5v155.5z" />
    <glyph glyph-name="aacute" unicode="&#xe1;" 
d="M207 718q-25 -3 -29 -21t-4 -38v-50v-19.5t0.5 -20.5t0.5 -52h31.5h32.5v52v20.5v19.5t1 50q0 20 -4 38.5t-29 20.5zM281 954v-38.5v-37.5h-153q16 49 56 70q15 6 41 5.5t56 0.5zM239 435h-32h-32v-155.5v-151.5h-41.5h-40.5v138v109v109v140q0 57 10 98t63 70q14 6 39 6
q29 0 43 -6q52 -29 62.5 -70t10.5 -98v-140v-109v-109v-138h-41.5h-40.5v151.5v155.5z" />
    <glyph glyph-name="eacute" unicode="&#xe9;" horiz-adv-x="407" 
d="M320 128q-32 0 -78 -3t-76 6q-52 30 -62.5 72t-10.5 96v143.5v138.5v0q0 24 0 23v-6.5v-5.5v26q0 51 12.5 98.5t60.5 69.5q30 8 75.5 7t78.5 -1v-38.5v-37.5h-97q-37 -1 -43 -23t-6 -45v-29t0 1.5t0.5 2t0.5 -28.5h66v-78h-33.5h-32.5v-11v0l-1 -231q0 -23 6 -42t43 -19
h97v-85zM290 954v-38.5t1 -37.5h-154q16 49 56 70q15 6 41 5.5t56 0.5z" />
    <glyph glyph-name="Eacute" unicode="&#xc9;" horiz-adv-x="407" 
d="M320 128q-32 0 -78 -3t-76 6q-52 30 -62.5 72t-10.5 96v143.5v138.5v0q0 24 0 23v-6.5v-5.5v26q0 51 12.5 98.5t60.5 69.5q30 8 75.5 7t78.5 -1v-38.5v-37.5h-97q-37 -1 -43 -23t-6 -45v-29t0 1.5t0.5 2t0.5 -28.5h66v-78h-33.5h-32.5v-11v0l-1 -231q0 -23 6 -42t43 -19
h97v-85zM290 954v-38.5t1 -37.5h-154q16 49 56 70q15 6 41 5.5t56 0.5z" />
    <glyph glyph-name="Oacute" unicode="&#xd3;" 
d="M207 717q-25 -3 -28.5 -21t-3.5 -38v-397q0 -21 3.5 -38.5t28.5 -20.5q25 1 29 19.5t4 39.5v397q0 20 -4 38.5t-29 20.5zM322 623v-330q0 -57 -10.5 -98.5t-63.5 -69.5q-16 -7 -43 -7q-26 0 -38 7q-54 28 -64 69.5t-10 98.5v330q0 57 10 98t64 70q12 7 38 7q30 0 43 -7
q53 -29 63.5 -70t10.5 -98zM277 954q0 -32 0.5 -38.5t0.5 -37.5h-154q16 49 56 70q15 6 41 5.5t56 0.5z" />
    <glyph glyph-name="oacute" unicode="&#xf3;" 
d="M207 717q-25 -3 -28.5 -21t-3.5 -38v-397q0 -21 3.5 -38.5t28.5 -20.5q25 1 29 19.5t4 39.5v397q0 20 -4 38.5t-29 20.5zM322 623v-330q0 -57 -10.5 -98.5t-63.5 -69.5q-16 -7 -43 -7q-26 0 -38 7q-54 28 -64 69.5t-10 98.5v330q0 57 10 98t64 70q12 7 38 7q30 0 43 -7
q53 -29 63.5 -70t10.5 -98zM277 954q0 -32 0.5 -38.5t0.5 -37.5h-154q16 49 56 70q15 6 41 5.5t56 0.5z" />
    <glyph glyph-name="Udieresis" unicode="&#xdc;" 
d="M207 202q25 2 29 20.5t4 39.5q-1 84 -1 145.5v118.5t0.5 119t0.5 147h40h41v-140v-109.5v-110t1 -139.5q0 -57 -10.5 -98.5t-63.5 -69.5q-16 -7 -43 -7q-26 0 -38 7q-54 28 -64 69.5t-10 98.5v139.5v110t0.5 109.5t0.5 140h40h41v-147v-119v-118.5v-145.5q0 -21 3.5 -39
t28.5 -21zM240 878v35.5v40.5h40h41v-41v-35h-81zM94 878v35v41h40h41v-40.5v-35.5h-81z" />
    <glyph glyph-name="udieresis" unicode="&#xfc;" 
d="M207 202q25 2 29 20.5t4 39.5q-1 84 -1 145.5v118.5t0.5 119t0.5 147h40h41v-140v-109.5v-110t1 -139.5q0 -57 -10.5 -98.5t-63.5 -69.5q-16 -7 -43 -7q-26 0 -38 7q-54 28 -64 69.5t-10 98.5v139.5v110t0.5 109.5t0.5 140h40h41v-147v-119v-118.5v-145.5q0 -21 3.5 -39
t28.5 -21zM240 878v35.5v40.5h40h41v-41v-35h-81zM94 878v35v41h40h41v-40.5v-35.5h-81z" />
    <glyph glyph-name="Iacute" unicode="&#xcd;" horiz-adv-x="283" 
d="M104 793h42h42v-181v-151.5v-151.5v-181h-84v665zM210 954q0 -32 0.5 -38.5t0.5 -37.5h-154q16 49 56 70q15 6 41 5.5t56 0.5z" />
    <glyph glyph-name="iacute" unicode="&#xed;" horiz-adv-x="283" 
d="M104 793h42h42v-181v-151.5v-151.5v-181h-84v665zM210 954q0 -32 0.5 -38.5t0.5 -37.5h-154q16 49 56 70q15 6 41 5.5t56 0.5z" />
    <glyph glyph-name="I" unicode="I" horiz-adv-x="271" 
d="M93 954h84v-826h-84v826z" />
    <glyph glyph-name="i" unicode="i" horiz-adv-x="271" 
d="M93 954h84v-826h-84v826z" />
    <glyph glyph-name="L" unicode="L" horiz-adv-x="365" 
d="M275 128q-30 -1 -62 -2.5t-47 5.5q-53 28 -63 69.5t-10 98.5v326.5v328.5h40.5h41.5q0 -169 -0.5 -340t-0.5 -340q0 -23 6 -42t43 -19h52v-43v-42z" />
    <glyph glyph-name="l" unicode="l" horiz-adv-x="365" 
d="M275 128q-30 -1 -62 -2.5t-47 5.5q-53 28 -63 69.5t-10 98.5v326.5v328.5h40.5h41.5q0 -169 -0.5 -340t-0.5 -340q0 -23 6 -42t43 -19h52v-43v-42z" />
    <glyph glyph-name="T" unicode="T" horiz-adv-x="407" 
d="M163 128q-1 180 -2 374t-1 375q-13 1 -37 0t-36 0v38.5v38.5h116.5h116.5v-38.5v-38.5h-39h-37v-375v-374h-41h-40z" />
    <glyph glyph-name="t" unicode="t" horiz-adv-x="407" 
d="M163 128q-1 180 -2 374t-1 375q-13 1 -37 0t-36 0v38.5v38.5h116.5h116.5v-38.5v-38.5h-39h-37v-375v-374h-41h-40z" />
    <glyph glyph-name="M" unicode="M" horiz-adv-x="556" 
d="M354 885q-25 -4 -29 -22t-4 -38q0 -169 0.5 -349t0.5 -348h-41.5h-41.5v348t1 349q0 20 -4 38.5t-29 21.5q-25 -4 -28.5 -22t-3.5 -38v-349v-348h-41h-40q0 163 -0.5 330.5t-0.5 331.5q0 57 10 98t64 70q12 7 38 7q27 0 43 -7q19 -11 32 -23q14 13 33 23q14 7 39 7
q26 0 42 -7q52 -29 62.5 -70t10.5 -98v-331.5v-330.5h-41h-40q0 168 -0.5 348t0.5 349q0 20 -4 38.5t-28 21.5z" />
    <glyph glyph-name="m" unicode="m" horiz-adv-x="556" 
d="M354 885q-25 -4 -29 -22t-4 -38q0 -169 0.5 -349t0.5 -348h-41.5h-41.5v348t1 349q0 20 -4 38.5t-29 21.5q-25 -4 -28.5 -22t-3.5 -38v-349v-348h-41h-40q0 163 -0.5 330.5t-0.5 331.5q0 57 10 98t64 70q12 7 38 7q27 0 43 -7q19 -11 32 -23q14 13 33 23q14 7 39 7
q26 0 42 -7q52 -29 62.5 -70t10.5 -98v-331.5v-330.5h-41h-40q0 168 -0.5 348t0.5 349q0 20 -4 38.5t-28 21.5z" />
    <glyph glyph-name="W" unicode="W" horiz-adv-x="556" 
d="M207 202q25 2 29 20.5t4 39.5q-1 172 -0.5 345t0.5 347h40.5h41.5v-347v-345q-1 -21 3 -39t29 -21q25 2 29 20.5t4 39.5q-1 168 -1 345v347h40.5h41.5v-331v-330q0 -57 -10.5 -98.5t-62.5 -69.5q-16 -7 -43 -7q-25 0 -39 7q-20 10 -32 23q-12 -12 -33 -23q-16 -7 -43 -7
q-26 0 -38 7q-54 28 -64 69.5t-10 98.5q0 164 0.5 330t0.5 331h40h41v-347v-345q0 -21 3.5 -39t28.5 -21z" />
    <glyph glyph-name="w" unicode="w" horiz-adv-x="556" 
d="M207 202q25 2 29 20.5t4 39.5q-1 172 -0.5 345t0.5 347h40.5h41.5v-347v-345q-1 -21 3 -39t29 -21q25 2 29 20.5t4 39.5q-1 168 -1 345v347h40.5h41.5v-331v-330q0 -57 -10.5 -98.5t-62.5 -69.5q-16 -7 -43 -7q-25 0 -39 7q-20 10 -32 23q-12 -12 -33 -23q-16 -7 -43 -7
q-26 0 -38 7q-54 28 -64 69.5t-10 98.5q0 164 0.5 330t0.5 331h40h41v-347v-345q0 -21 3.5 -39t28.5 -21z" />
    <glyph glyph-name="at" unicode="@" horiz-adv-x="550" 
d="M207 719q-25 -2 -28.5 -21t-3.5 -38v-50.5v-20v-20.5v-52h32h32v52v20.5t0.5 20t0.5 50.5q0 19 -4 37.5t-29 21.5zM94 954q32 1 63.5 1.5t53.5 0.5q35 0 98.5 -0.5t84.5 -9.5q55 -25 64.5 -69.5t9.5 -98.5v-239.5v-239.5q-2 -54 -12 -96t-62 -72q-27 -8 -70.5 -6t-75.5 3
h-5h-4v151.5v156.5q-16 -1 -32.5 -0.5t-31.5 0.5v-156.5v-151.5h-41h-40q0 81 -0.5 138t-0.5 109.5v109.5v140q0 57 10 98t64 70q13 6 42 6q24 0 39 -6q52 -29 63 -70t11 -98q-1 -141 -1 -223.5v-197.5h16q37 0 43 23.5t6 46.5v272v272q0 23 -6 42t-43 19h-128h-115v75z" />
    <glyph glyph-name="Euro" unicode="&#x20ac;" horiz-adv-x="482" 
d="M393 128q-32 0 -76.5 -2.5t-77.5 5.5q-45 15 -59 61.5t-14 106.5v69v67h-79v82l80 -1v32v33v0v6v6h-80v83h79v51v53q0 50 11 101.5t62 66.5q30 9 75.5 7.5t78.5 -1.5q0 -27 0.5 -38t0.5 -38h-98q-37 0 -43 -22.5t-6 -45.5q0 -44 0.5 -77t0.5 -57h146v-82h-146v-37.5
v-40.5h146v-81h-146q0 -31 -0.5 -70.5t-0.5 -90.5q0 -24 6 -42.5t43 -18.5h98q0 -32 -0.5 -43.5t-0.5 -41.5z" />
    <glyph glyph-name="ampersand" unicode="&#x26;" horiz-adv-x="561" 
d="M332 209q-6 14 -7.5 42t-1.5 49v138v79h-148l-1 -247q0 -24 6 -42.5t43 -18.5h109zM404 517v-120.5v-120.5q0 -24 6 -45.5t43 -21.5h19v-81h-17q-23 -1 -66 -2.5t-88 -1.5t-83 1.5t-50 7.5q-56 21 -65.5 66.5t-9.5 99.5v240.5v240.5q0 51 12.5 98.5t60.5 69.5
q30 9 75.5 7.5t78.5 -1.5q0 -27 0.5 -38t0.5 -38h-98q-37 0 -43 -22.5t-6 -45.5q0 -54 0.5 -108t0.5 -107h148v94t1 104l80 -1l1 -198h65v-77h-66z" />
    <glyph glyph-name="one" unicode="1" horiz-adv-x="371" 
d="M87 954q30 0 60.5 1.5t48.5 -4.5q51 -26 62 -60.5t11 -107.5v-328.5v-326.5h-41.5h-40.5v344t1 346q0 22 -6.5 41t-42.5 19h-52v37.5v38.5z" />
    <glyph glyph-name="Uacute" unicode="&#xda;" 
d="M207 202q25 2 29 20.5t4 39.5q-1 84 -1 145.5v118.5v119v147h40.5h41.5v-140v-109.5v-110v-139.5q0 -57 -10.5 -98.5t-62.5 -69.5q-16 -7 -43 -7q-25 0 -39 7q-53 28 -63 69.5t-10 98.5v139.5v110v109.5v140h40.5h41.5q0 -85 -0.5 -147t-0.5 -119v-118.5v-145.5
q0 -21 4 -39t29 -21zM279 954v-38.5v-37.5h-153q14 48 56 70q15 6 41 5.5t56 0.5z" />
    <glyph glyph-name="uacute" unicode="&#xfa;" 
d="M207 202q25 2 29 20.5t4 39.5q-1 84 -1 145.5v118.5v119v147h40.5h41.5v-140v-109.5v-110v-139.5q0 -57 -10.5 -98.5t-62.5 -69.5q-16 -7 -43 -7q-25 0 -39 7q-53 28 -63 69.5t-10 98.5v139.5v110v109.5v140h40.5h41.5q0 -85 -0.5 -147t-0.5 -119v-118.5v-145.5
q0 -21 4 -39t29 -21zM279 954v-38.5v-37.5h-153q14 48 56 70q15 6 41 5.5t56 0.5z" />
    <glyph glyph-name="question" unicode="?" horiz-adv-x="407" 
d="M174 328h-81v132v133h146v115.5v116.5q0 20 -4 38t-28 22q-26 -3 -29.5 -21.5t-3.5 -38.5l1 -33l-82 -1q-1 57 9.5 98t63.5 69q15 7 43 7q25 0 38 -7q52 -29 63 -70t11 -98q-1 -69 -1 -137v-136h-146v-94.5v-94.5zM93 218h40.5h40.5q0 -103 0 -91.5v46v46t0 -90.5h-81v90
z" />
    <glyph glyph-name="questiondown" unicode="&#xbf;" horiz-adv-x="407" 
d="M239 676h82q-1 -49 -1 -139v-139h-146v-116v-116q0 -20 4 -38t29 -21q25 2 28.5 20.5t3.5 38.5v34h82q0 -57 -11 -98t-63 -68q-13 -7 -42 -7q-25 0 -39 7q-53 27 -63 68.5t-10 98.5v137t1 137h145v100.5v100.5zM320 788h-40.5h-40.5q0 102 0 90.5v-46v-46.5t0 92h81v-90z
" />
    <glyph glyph-name="exclamdown" unicode="&#xa1;" horiz-adv-x="260" 
d="M93 37v639h77v-177.5v-142.5v-142.5v-176.5h-38.5h-38.5zM93 788v90h77q0 -104 0 -92v46.5v46t0 -90.5h-38.5h-38.5z" />
    <glyph glyph-name="exclam" unicode="!" horiz-adv-x="260" 
d="M93 954h37.5h38.5v-176v-137.5v-137.5v-175h-76v626zM93 217h37.5h38.5v-89h-76v89z" />
    <glyph glyph-name="slash" unicode="/" horiz-adv-x="395" 
d="M233 954h79l-145 -826h-80q33 187 72.5 410.5t73.5 415.5z" />
    <glyph glyph-name="backslash" unicode="\" horiz-adv-x="395" 
d="M167 954q33 -192 72.5 -415.5t72.5 -410.5h-79l-146 826h80z" />
    <glyph glyph-name="percent" unicode="%" horiz-adv-x="639" 
d="M326 274q-1 47 13.5 85t59.5 63q14 6 38 6q29 0 43 -6q47 -26 59.5 -62t13.5 -84v0v-1.5v-0.5v-2v-1v0q-1 -48 -13.5 -84t-59.5 -61q-13 -7 -43 -7q-24 0 -38 7q-45 24 -59.5 62t-13.5 86zM471 953h87l-385 -826h-87q38 82 87.5 188.5t102 219t103.5 221.5t92 197z
M321 810q0 -48 -14.5 -86t-59.5 -62q-14 -6 -38 -6q-30 0 -43 6q-48 25 -60.5 61t-12.5 85v0v0.5v1.5v1v2v0q0 48 12.5 83.5t60.5 61.5q15 7 43 7q25 0 38 -7q45 -24 59.5 -62t14.5 -86zM172 825v-15.5v-14.5q0 -21 4.5 -39.5t30.5 -19.5q24 3 28.5 20.5t5.5 38.5v6.5v6.5v0
v0.5v1.5v0v0v3v0v6v6q-1 20 -5.5 38t-28.5 21q-26 -2 -30.5 -20.5t-4.5 -38.5zM475 289q-1 19 -6 38t-30 21q-25 -3 -29 -21.5t-4 -37.5v-7v-6v0v-2v0v0v-2v-1v0v-6v-6q0 -21 4 -39t29 -21q25 2 30 20.5t6 39.5q-2 14 0 30z" />
    <glyph glyph-name="bracketleft" unicode="[" horiz-adv-x="364" 
d="M93 954h90.5h91.5v-75h-102v-375.5v-375.5h52.5h49.5v-91h-91.5h-90.5v917z" />
    <glyph glyph-name="bracketright" unicode="]" horiz-adv-x="365" 
d="M275 954v-917h-91.5h-90.5v91h48.5h53.5v375.5v375.5h-102v75h90.5h91.5z" />
    <glyph glyph-name="parenleft" unicode="(" horiz-adv-x="364" 
d="M275 37q-30 -1 -62 -2.5t-46 6.5q-54 25 -64.5 70t-9.5 98v131.5v71.5v0v0v83.5v83.5v0v0v78v138q-1 56 11.5 99.5t62.5 56.5q14 6 46 4.5t62 -1.5v-39v-38h-52q-37 -1 -43 -19.5t-5 -41.5v-314.5v-313.5q-1 -24 5 -42.5t43 -18.5h52v-45.5v-44.5z" />
    <glyph glyph-name="parenright" unicode=")" horiz-adv-x="365" 
d="M93 37v44.5v45.5h52q36 0 42.5 18.5t6.5 42.5q-2 314 0 628q0 23 -6.5 41.5t-42.5 19.5h-52v38v39q30 0 62 1.5t47 -4.5q49 -13 61 -56.5t12 -99.5v-138v-78v0v0v-83.5v-83.5v0v0v-71.5v-131.5q0 -53 -10.5 -98t-62.5 -70q-15 -8 -47 -6.5t-62 2.5z" />
    <glyph glyph-name="colon" unicode=":" horiz-adv-x="265" 
d="M179 515h-86v80h86v-80zM179 128h-86v91h86v-91z" />
    <glyph glyph-name="period" unicode="." horiz-adv-x="265" 
d="M179 128h-86v91h86v-91z" />
    <glyph glyph-name="semicolon" unicode=";" horiz-adv-x="265" 
d="M180 218q0 -30 -1 -71t-7 -55q-13 -24 -35.5 -38t-43.5 -20v184h43.5h43.5zM181 514h-87v81h87v-81z" />
    <glyph glyph-name="comma" unicode="," horiz-adv-x="265" 
d="M180 218q0 -30 -1 -71t-7 -55q-13 -24 -35.5 -38t-43.5 -20v184h43.5h43.5z" />
    <glyph glyph-name="quotesingle" unicode="'" horiz-adv-x="265" 
d="M180 953q-1 -30 -2 -62t-7 -47q-12 -23 -34.5 -36.5t-43.5 -20.5v167q31 0 43 -0.5t44 -0.5z" />
    <glyph glyph-name="quotedbl" unicode="&#x22;" horiz-adv-x="388" 
d="M302 953q-1 -30 -2 -62t-7 -47q-12 -23 -34.5 -36.5t-43.5 -20.5v167q31 0 43 -0.5t44 -0.5zM91 953q30 0 42.5 0.5t43.5 0.5v-167q-22 7 -44 20.5t-34 36.5q-7 15 -7.5 47t-0.5 62z" />
    <glyph glyph-name="uni00AD" unicode="&#xad;" horiz-adv-x="396" 
d="M311 517h-218v78h218v-78z" />
    <glyph glyph-name="underscore" unicode="_" horiz-adv-x="462" 
d="M397 62h-329v66h329v-66z" />
    <glyph glyph-name="asterisk" unicode="*" horiz-adv-x="530" 
d="M93 766h36h36q-9 27 -9 85h83v-24q0 -21 3.5 -39.5t29.5 -21.5q26 2 30 21t4 40v24h83q0 -55 -10 -85h36h36v-79h-70q8 -30 8 -92h-83v35q0 20 -4 39t-30 22q-26 -4 -29.5 -22.5t-3.5 -38.5v-35h-83q0 26 1 49t7 43h-71v79z" />
    <glyph glyph-name="numbersign" unicode="#" horiz-adv-x="549" 
d="M163 954h78v-278h78v278h78v-278h78v-78h-78v-81h78v-79h-78v-310h-78v310h-78v-310h-78v310h-78v79h78v81h-78v78h78v278zM319 517v81h-78v-81h78z" />
  </font>
</defs>
</svg>
